<?xml version="1.0" encoding="UTF-8"?>
<svg id="Objects" xmlns="http://www.w3.org/2000/svg" viewBox="0 0 127 203.88">
  <defs>
    <style>
      .cls-1 {
        fill: #bababa;
      }

      .cls-1, .cls-2, .cls-3, .cls-4, .cls-5, .cls-6, .cls-7, .cls-8, .cls-9, .cls-10, .cls-11, .cls-12, .cls-13, .cls-14, .cls-15, .cls-16, .cls-17 {
        stroke-width: 0px;
      }

      .cls-2 {
        fill: #ffbc73;
      }

      .cls-3 {
        fill: #ead475;
      }

      .cls-4 {
        fill: #f7e492;
      }

      .cls-5 {
        fill: #ffdccc;
      }

      .cls-6 {
        fill: #775239;
      }

      .cls-7 {
        fill: #ffcebb;
      }

      .cls-8 {
        fill: #d6ecf2;
      }

      .cls-9 {
        fill: #ffcc8f;
      }

      .cls-10 {
        fill: #e8f5f9;
      }

      .cls-11 {
        fill: #ddc55e;
      }

      .cls-12 {
        fill: #86e2d0;
      }

      .cls-13 {
        fill: #79cce2;
      }

      .cls-14 {
        fill: #ffebe1;
      }

      .cls-15 {
        fill: #ccc;
      }

      .cls-16 {
        fill: #fff;
      }

      .cls-17 {
        fill: #97efde;
      }
    </style>
  </defs>
  <g>
    <path class="cls-10" d="M80.26,120.18h-31.34l-24.62,8.81c-9.48,3.39-15.8,12.37-15.8,22.44v26.1c0,4.7,3.81,8.52,8.52,8.52h95.15c4.7,0,8.52-3.81,8.52-8.52v-26.1c0-10.07-6.32-19.05-15.8-22.44l-24.62-8.81Z"/>
    <path class="cls-8" d="M104.88,128.99l-22.07-7.9-18.22,50.22-18.22-50.22-22.07,7.9c-5.19,1.86-9.42,5.4-12.2,9.86l5.76,9.63c2.89,4.82,7.82,8.09,13.3,8.93l-.6,3.39c-.78,4.45.06,9.03,2.38,12.9l7.38,12.34h48.55l7.38-12.34c2.32-3.87,3.16-8.45,2.38-12.9l-.6-3.39c5.48-.84,10.42-4.1,13.3-8.93l5.76-9.63c-2.78-4.47-7.01-8-12.2-9.86Z"/>
    <polygon class="cls-9" points="80.25 120.18 48.91 120.18 33.14 125.82 57.84 186.05 71.74 186.05 95.87 125.77 80.25 120.18"/>
    <ellipse class="cls-7" cx="64.66" cy="124.2" rx="13.59" ry="9.45"/>
    <g>
      <path class="cls-16" d="M40.56,123.13c-17.39,1.21-24.3,10.69-24.3,10.69l6.88,11.5c2.28,3.81,6.4,6.15,10.84,6.15h4.48l-1.84,10.4c-.53,2.99.04,6.07,1.6,8.67l9.27,15.5h15.9l-22.82-62.91Z"/>
      <path class="cls-16" d="M88.61,123.13c17.39,1.21,24.3,10.69,24.3,10.69l-6.87,11.5c-2.28,3.81-6.4,6.15-10.84,6.15h-4.48l1.84,10.4c.53,2.99-.04,6.07-1.6,8.67l-9.27,15.5h-15.9l22.83-62.91Z"/>
    </g>
    <polygon class="cls-2" points="52.25 117.77 64.59 133.69 49.99 149.13 40.56 123.13 52.25 117.77"/>
    <polygon class="cls-2" points="76.92 117.77 64.59 133.69 79.18 149.13 88.61 123.13 76.92 117.77"/>
    <circle class="cls-5" cx="109.58" cy="74.42" r="9.96" transform="translate(11.88 163.87) rotate(-76.66)"/>
    <circle class="cls-5" cx="20.87" cy="74.42" r="9.96" transform="translate(-56.33 78.17) rotate(-77.11)"/>
    <path class="cls-7" d="M30.83,74.42c0-5.5-4.46-9.96-9.96-9.96-2.59,0-4.94,1-6.71,2.62-.16,4.67.41,11.34,3.95,16.9.88.25,1.8.4,2.76.4,5.5,0,9.96-4.46,9.96-9.96Z"/>
    <path class="cls-7" d="M99.63,74.42c0-5.5,4.46-9.96,9.96-9.96,2.59,0,4.94,1,6.71,2.62.16,4.67-.41,11.34-3.95,16.9-.88.25-1.8.4-2.76.4-5.5,0-9.96-4.46-9.96-9.96Z"/>
    <rect class="cls-14" x="21.35" y="4.14" width="87.75" height="121.23" rx="43.87" ry="43.87"/>
    <path class="cls-5" d="M34.38,81.5v-33.48c0-21.92,16.29-40.21,37.36-43.38-2.13-.32-4.3-.49-6.51-.49h0c-24.13,0-43.87,19.74-43.87,43.87v33.48c0,24.13,19.74,43.87,43.87,43.87h0c2.21,0,4.39-.17,6.51-.49-21.07-3.17-37.36-21.47-37.36-43.38Z"/>
    <path class="cls-11" d="M37.33,60.16c-.84,0-1.66-.43-2.12-1.21-.69-1.17-.3-2.68.87-3.37,6.12-3.62,13.72-3.62,19.83,0,1.17.69,1.56,2.2.87,3.37-.69,1.17-2.2,1.56-3.37.87-4.57-2.7-10.25-2.7-14.82,0-.39.23-.83.34-1.25.34Z"/>
    <path class="cls-6" d="M75.8,60.16c-.84,0-1.66-.43-2.12-1.21-.69-1.17-.3-2.68.87-3.37,6.12-3.62,13.72-3.62,19.83,0,1.17.69,1.56,2.2.87,3.37-.69,1.17-2.2,1.56-3.37.87-4.57-2.7-10.25-2.7-14.82,0-.39.23-.83.34-1.25.34Z"/>
    <ellipse class="cls-5" cx="65.23" cy="82.94" rx="7.39" ry="9.85"/>
    <path class="cls-7" d="M64.77,83.55c0-4,1.79-7.43,4.35-8.97-1.13-.94-2.46-1.49-3.89-1.49-4.08,0-7.39,4.41-7.39,9.85s3.31,9.85,7.39,9.85c1.08,0,2.11-.32,3.03-.87-2.09-1.74-3.49-4.83-3.49-8.36Z"/>
    <path class="cls-3" d="M20.87,64.47c.16,0,.31.02.47.02v-.02s28.49-32.83,28.69-33.44-15.17-14.59-15.17-14.59c0,0-26.08,4.6-18.91,49.34,1.45-.83,3.13-1.31,4.92-1.31Z"/>
    <path class="cls-11" d="M34.86,16.43s-4.24.75-8.84,4.58c1.36,3.74,5.21,13.06,12.88,23.14,5.9-6.86,11.04-12.87,11.13-13.13.21-.62-15.17-14.59-15.17-14.59Z"/>
    <path class="cls-4" d="M34.86,16.43s16.01,52.59,77.15,53.15c2.77.03,4.39-3.05,2.91-5.39-1.84-2.91-3.53-7.09-3.53-12.65,0-12.11-3.08-36.73-25.65-47.4-22.57-10.67-44.3,1.39-50.88,12.29Z"/>
    <path class="cls-3" d="M58.49,1.02c-11.06,2.5-19.85,9.13-23.62,15.39,0,0,9,29.55,39.26,44.59C57.43,38.51,57.58,11.82,58.49,1.02Z"/>
    <path class="cls-17" d="M39.37,154.34h0c-1.69,0-3.08-1.39-3.08-3.08v-28.47c0-1.69,1.38-3.08,3.08-3.08h0c1.69,0,3.08,1.39,3.08,3.08v28.47c0,1.69-1.39,3.08-3.08,3.08Z"/>
    <path class="cls-12" d="M39.37,151.27v-28.47c0-1.13.62-2.11,1.54-2.65-.45-.27-.98-.43-1.54-.43-1.69,0-3.08,1.39-3.08,3.08v28.47c0,1.69,1.38,3.08,3.08,3.08.56,0,1.08-.16,1.54-.43-.91-.54-1.54-1.52-1.54-2.65Z"/>
    <circle class="cls-15" cx="39.37" cy="154.34" r="9.85" transform="translate(-119.89 157.04) rotate(-76.66)"/>
    <path class="cls-17" d="M90.17,141.26v-13.65c0-1.28,1.08-2.36,2.36-2.36h5.42c1.28,0,2.36,1.08,2.36,2.36v13.65h5.54v-13.65c0-4.34-3.55-7.9-7.9-7.9h-5.42c-4.34,0-7.9,3.56-7.9,7.9v13.65h5.54Z"/>
    <path class="cls-15" d="M91.42,159.45c.39-.99.22-2.14-.54-2.88-.43-.43-.71-1.02-.71-1.66v-13.65h-5.54v13.65c0,2.12.85,4.06,2.22,5.48,1.39,1.44,3.83.93,4.56-.94h0Z"/>
    <path class="cls-15" d="M99.07,159.45c-.39-.99-.22-2.14.54-2.88.43-.43.71-1.02.71-1.66v-13.65h5.54v13.65c0,2.12-.85,4.06-2.22,5.48-1.39,1.44-3.83.93-4.56-.94h0Z"/>
    <g>
      <path class="cls-12" d="M95.15,119.72h-2.62c-4.34,0-7.9,3.56-7.9,7.9v13.65h2.62v-13.65c0-4.34,3.55-7.9,7.9-7.9Z"/>
      <path class="cls-12" d="M100.57,125.26h-2.62c1.28,0,2.36,1.08,2.36,2.36v13.65h2.62v-13.65c0-1.28-1.08-2.36-2.36-2.36Z"/>
    </g>
    <path class="cls-1" d="M89.47,160.4c-1.38-1.42-2.22-3.36-2.22-5.48v-13.65h-2.62v13.65c0,2.12.85,4.06,2.22,5.48.91.94,2.24,1.04,3.27.49-.23-.13-.46-.28-.66-.49Z"/>
    <path class="cls-1" d="M101.68,159.46c-.39-.99-.22-2.14.54-2.88.43-.43.71-1.02.71-1.66v-13.65h-2.62v13.65c0,.64-.27,1.23-.71,1.66-.75.74-.93,1.9-.54,2.88.63,1.6,2.5,2.19,3.9,1.43-.56-.3-1.03-.77-1.29-1.43Z"/>
    <path class="cls-1" d="M44.68,154.34c0,2.93-2.38,5.31-5.31,5.31s-5.31-2.38-5.31-5.31,2.38-5.31,5.31-5.31,5.31,2.38,5.31,5.31Z"/>
  </g>
  <g>
    <circle class="cls-16" cx="45.88" cy="69.58" r="8.62"/>
    <path class="cls-13" d="M44.89,63.51c-2.28.36-4.19,2.07-4.88,4.28-.33,1.07-.35,2.08-.15,3.02.12.57.84.69,1.15.2.68-1.07,2-1.69,3.43-1.31,1.02.27,1.86,1.11,2.13,2.14.31,1.17-.06,2.27-.79,3-.35.35-.08.93.41.9,1.07-.06,2.22-.47,3.5-1.51,1.41-1.16,2.37-2.82,2.36-4.65-.01-3.71-3.33-6.66-7.15-6.06Z"/>
    <circle class="cls-16" cx="84.36" cy="69.58" r="8.62"/>
    <path class="cls-13" d="M83.36,63.5c-2.28.36-4.19,2.07-4.88,4.28-.33,1.07-.35,2.08-.15,3.02.12.57.84.69,1.15.2.68-1.07,2-1.69,3.43-1.31,1.02.27,1.86,1.11,2.13,2.14.31,1.17-.06,2.27-.79,3-.35.35-.08.93.41.9,1.07-.06,2.22-.47,3.5-1.51,1.41-1.16,2.37-2.82,2.36-4.65-.01-3.71-3.33-6.66-7.15-6.06Z"/>
  </g>
</svg>