<?xml version="1.0" encoding="UTF-8"?>
<svg id="Objects" xmlns="http://www.w3.org/2000/svg" viewBox="0 0 127 203.88">
  <defs>
    <style>
      .cls-1 {
        fill: #aa8471;
      }

      .cls-1, .cls-2, .cls-3, .cls-4, .cls-5, .cls-6, .cls-7, .cls-8, .cls-9, .cls-10, .cls-11, .cls-12, .cls-13, .cls-14, .cls-15 {
        stroke-width: 0px;
      }

      .cls-2 {
        fill: #bababa;
      }

      .cls-3 {
        fill: #b5804b;
      }

      .cls-4 {
        fill: #a07765;
      }

      .cls-5 {
        fill: #d6ecf2;
      }

      .cls-6 {
        fill: #353535;
      }

      .cls-7 {
        fill: #7ad2ea;
      }

      .cls-8 {
        fill: #e8f5f9;
      }

      .cls-9 {
        fill: #a06a3a;
      }

      .cls-10 {
        fill: #79cce2;
      }

      .cls-11 {
        fill: #444;
      }

      .cls-12 {
        fill: #98e0f9;
      }

      .cls-13 {
        fill: #ccc;
      }

      .cls-14 {
        fill: #fff;
      }

      .cls-15 {
        fill: #8e592d;
      }
    </style>
  </defs>
  <path class="cls-8" d="M82.31,126.63h-27.57l-21.65,7.79c-8.34,3-13.9,10.94-13.9,19.84v23.07c0,4.16,3.35,7.53,7.49,7.53h83.69c4.14,0,7.49-3.37,7.49-7.53v-23.07c0-8.9-5.56-16.84-13.9-19.84l-21.65-7.79Z"/>
  <path class="cls-5" d="M103.97,134.42l-19.41-6.98-16.03,44.4-16.03-44.4-19.41,6.98c-4.56,1.64-8.29,4.77-10.73,8.72l5.07,8.51c2.54,4.27,6.88,7.15,11.7,7.89l-.53,3c-.69,3.93.05,7.98,2.09,11.4l6.49,10.91h42.7l6.49-10.91c2.04-3.42,2.78-7.47,2.09-11.41l-.53-3c4.82-.74,9.16-3.63,11.7-7.9l5.06-8.51c-2.44-3.95-6.17-7.08-10.73-8.72Z"/>
  <polygon class="cls-12" points="82.31 126.63 54.74 126.63 40.87 131.62 62.59 184.86 74.82 184.86 96.04 131.57 82.31 126.63"/>
  <rect class="cls-15" x="56.68" y="120.02" width="22.88" height="19.86"/>
  <g>
    <path class="cls-14" d="M47.4,129.25c-15.3,1.07-21.37,9.45-21.37,9.45l6.05,10.17c2.01,3.37,5.63,5.44,9.53,5.44h3.94l-1.61,9.19c-.46,2.64.03,5.37,1.4,7.67l8.15,13.7h13.98l-20.08-55.62Z"/>
    <path class="cls-14" d="M89.66,129.25c15.3,1.07,21.37,9.45,21.37,9.45l-6.05,10.17c-2.01,3.37-5.63,5.44-9.53,5.44h-3.94l1.61,9.19c.46,2.64-.03,5.37-1.4,7.67l-8.15,13.7h-13.98l20.08-55.62Z"/>
  </g>
  <path class="cls-7" d="M56.36,124.19l12.17,15.79-8.81,9.36c-2.57,2.73-7.09,1.78-8.36-1.75l-6.53-18.08,11.53-5.32Z"/>
  <path class="cls-7" d="M80.69,124.19l-12.17,15.79,8.81,9.36c2.57,2.73,7.09,1.78,8.36-1.75l6.53-18.08-11.53-5.32Z"/>
  <ellipse class="cls-9" cx="108.1" cy="86.18" rx="8.76" ry="8.8"/>
  <ellipse class="cls-9" cx="30.08" cy="86.18" rx="8.76" ry="8.8"/>
  <path class="cls-15" d="M38.84,86.18c0-4.86-3.92-8.8-8.76-8.8-2.28,0-4.34.88-5.9,2.31-.14,4.13.36,10.02,3.47,14.94.77.22,1.58.35,2.43.35,4.84,0,8.76-3.94,8.76-8.8Z"/>
  <path class="cls-15" d="M99.35,86.18c0-4.86,3.92-8.8,8.76-8.8,2.28,0,4.34.88,5.9,2.31.14,4.13-.36,10.02-3.47,14.94-.77.22-1.58.35-2.43.35-4.84,0-8.76-3.94-8.76-8.8Z"/>
  <rect class="cls-3" x="30.5" y="24.05" width="77.18" height="107.17" rx="38.59" ry="38.59"/>
  <path class="cls-9" d="M41.96,92.44v-29.6c0-19.38,14.33-35.55,32.86-38.35-1.87-.28-3.78-.43-5.73-.43h0c-21.22,0-38.59,17.45-38.59,38.79v29.6c0,21.33,17.37,38.79,38.59,38.79h0c1.95,0,3.86-.15,5.73-.43-18.53-2.8-32.86-18.98-32.86-38.35Z"/>
  <g>
    <ellipse class="cls-14" cx="52.17" cy="82.82" rx="7.58" ry="7.62"/>
    <path class="cls-10" d="M51.29,77.45c-2.01.32-3.69,1.83-4.29,3.79-.29.94-.31,1.84-.13,2.67.11.5.74.61,1.01.17.6-.94,1.76-1.49,3.01-1.16.9.24,1.64.98,1.87,1.89.27,1.04-.05,2-.7,2.65-.31.31-.07.83.36.8.94-.05,1.96-.41,3.08-1.34,1.24-1.03,2.08-2.5,2.08-4.11-.01-3.28-2.93-5.89-6.29-5.35Z"/>
    <ellipse class="cls-14" cx="86.01" cy="82.82" rx="7.58" ry="7.62"/>
    <path class="cls-10" d="M85.13,77.45c-2.01.32-3.69,1.83-4.29,3.79-.29.94-.31,1.84-.13,2.67.11.5.74.61,1.01.17.6-.94,1.76-1.49,3.01-1.16.9.24,1.64.98,1.87,1.89.27,1.04-.05,2-.7,2.65-.31.31-.07.83.36.8.94-.05,1.96-.41,3.08-1.34,1.24-1.03,2.08-2.5,2.08-4.11-.01-3.28-2.93-5.89-6.29-5.35Z"/>
  </g>
  <path class="cls-6" d="M44.55,73.57c-.74,0-1.46-.38-1.87-1.07-.61-1.03-.27-2.37.76-2.98,5.38-3.2,12.06-3.2,17.45,0,1.03.61,1.37,1.95.76,2.98-.61,1.03-1.94,1.38-2.97.77-4.02-2.39-9.02-2.39-13.04,0-.35.21-.73.3-1.1.3Z"/>
  <path class="cls-6" d="M78.39,73.57c-.74,0-1.46-.38-1.87-1.07-.61-1.03-.27-2.37.76-2.98,5.38-3.2,12.06-3.2,17.45,0,1.03.61,1.37,1.95.76,2.98-.61,1.03-1.94,1.38-2.97.77-4.02-2.39-9.02-2.39-13.04,0-.35.21-.73.3-1.1.3Z"/>
  <ellipse class="cls-9" cx="69.09" cy="93.71" rx="6.5" ry="8.71"/>
  <path class="cls-15" d="M68.68,94.25c0-3.53,1.57-6.57,3.83-7.93-1-.83-2.17-1.32-3.42-1.32-3.59,0-6.5,3.9-6.5,8.71s2.91,8.71,6.5,8.71c.95,0,1.85-.28,2.67-.77-1.84-1.54-3.07-4.27-3.07-7.39Z"/>
  <path class="cls-11" d="M119.58,60.49c0-4.03-2.41-7.49-5.85-9.01,1.04-1.49,1.66-3.3,1.66-5.26,0-5.07-4.09-9.18-9.14-9.18-.36,0-.72.03-1.07.07-.57-4.64-4.5-8.23-9.27-8.23-.86,0-1.69.13-2.49.35-1.03-4.33-4.9-7.56-9.53-7.56-2.14,0-4.11.7-5.72,1.86-1.55-3.46-5-5.88-9.02-5.88s-7.47,2.41-9.02,5.88c-1.61-1.17-3.58-1.86-5.72-1.86-4.63,0-8.5,3.22-9.53,7.56-.79-.22-1.62-.35-2.49-.35-4.77,0-8.7,3.59-9.27,8.23-.35-.04-.7-.07-1.07-.07-5.05,0-9.14,4.11-9.14,9.18,0,1.96.62,3.77,1.66,5.26-3.44,1.53-5.85,4.99-5.85,9.01,0,2.62,1.02,4.99,2.68,6.76-1.64,1.52-2.68,3.69-2.68,6.11,0,3.22,1.83,6,4.49,7.38,1.6-2.04,4.08-3.36,6.87-3.36.14,0,.28.01.42.02h0s8.91-22.67,24.17-31.99c2.24-1.37,5-1.56,7.47-.68l2.36.85c2.97,1.07,6.21,1.07,9.17,0l2.35-.85c2.6-.94,5.47-.59,7.81.88,15.06,9.44,23.84,31.78,23.84,31.78l-.11-.7.23.7h0c.1,0,.2-.01.3-.01,2.81,0,5.3,1.33,6.9,3.4,2.71-1.36,4.58-4.17,4.58-7.42,0-2.42-1.04-4.59-2.68-6.11,1.66-1.77,2.68-4.14,2.68-6.76Z"/>
  <path class="cls-6" d="M42.38,28.91c-4.77,0-8.7,3.59-9.27,8.23-.35-.04-.7-.07-1.07-.07-5.05,0-9.14,4.11-9.14,9.18,0,1.96.62,3.77,1.66,5.26-3.44,1.53-5.85,4.99-5.85,9.01,0,2.62,1.02,4.99,2.68,6.76-1.64,1.52-2.68,3.69-2.68,6.11,0,3.22,1.83,6,4.49,7.38,1.6-2.04,4.08-3.36,6.87-3.36.14,0,.28.01.42.02h0s4.21-10.73,11.81-20.45c-.77-1.6-7.24-16.03,2.56-27.74-.79-.22-1.62-.35-2.49-.35Z"/>
  <path class="cls-6" d="M73.68,45.58l2.35-.85c2.6-.94,5.47-.59,7.81.88,15.06,9.44,23.84,31.78,23.84,31.78l-.11-.7.23.7h0c.1,0,.2-.01.3-.01,2.27,0,4.33.88,5.88,2.31h.02c-3.94-27.81-19.46-37.67-27.36-40.92-2.54-1.05-5.42-.78-7.74.7-7.23,4.63-14.4,6.11-14.4,6.11,2.97,1.07,6.21,1.07,9.17,0Z"/>
  <path class="cls-13" d="M28.97,141.19h8.51c1.76,0,3.18,1.43,3.18,3.18v5.76h-14.88v-5.76c0-1.76,1.43-3.18,3.18-3.18Z"/>
  <path class="cls-1" d="M15.56,146.02h35.35c3.69,0,6.68,2.99,6.68,6.68v32.17H15.55c-3.68,0-6.68-2.99-6.68-6.68v-25.49c0-3.69,2.99-6.68,6.68-6.68Z"/>
  <path class="cls-2" d="M25.79,144.38v5.76h6.54c.75-3.37,1.65-6.35,2.63-8.95h-6c-1.75,0-3.17,1.43-3.17,3.19Z"/>
  <path class="cls-4" d="M33.37,146.02H15.54c-3.68,0-6.66,3-6.66,6.69v25.46c0,3.7,2.98,6.69,6.66,6.69h16.07c-2.37-16.89-.86-29.64,1.77-38.85Z"/>
</svg>