<?xml version="1.0" encoding="UTF-8"?>
<svg id="Objects" xmlns="http://www.w3.org/2000/svg" viewBox="0 0 127 203.88">
  <defs>
    <style>
      .cls-1 {
        fill: #fcfaa7;
      }

      .cls-1, .cls-2, .cls-3, .cls-4, .cls-5, .cls-6, .cls-7, .cls-8, .cls-9, .cls-10, .cls-11, .cls-12, .cls-13, .cls-14 {
        stroke-width: 0px;
      }

      .cls-2 {
        fill: #2b2207;
      }

      .cls-3 {
        fill: #282828;
      }

      .cls-4 {
        fill: #8eb269;
      }

      .cls-5 {
        fill: #ffdccc;
      }

      .cls-6 {
        fill: #ffcebb;
      }

      .cls-7 {
        fill: #d6ecf2;
      }

      .cls-8 {
        fill: #ffffca;
      }

      .cls-9 {
        fill: #9ec47a;
      }

      .cls-10 {
        fill: #353535;
      }

      .cls-11 {
        fill: #e8f5f9;
      }

      .cls-12 {
        fill: #444;
      }

      .cls-13 {
        fill: #ffebe1;
      }

      .cls-14 {
        fill: #fff;
      }
    </style>
  </defs>
  <path class="cls-11" d="M78.51,121.5h-31.34l-24.62,8.81c-9.48,3.39-15.8,12.37-15.8,22.44v26.1c0,4.7,3.81,8.52,8.52,8.52h95.15c4.7,0,8.52-3.81,8.52-8.52v-26.1c0-10.07-6.32-19.05-15.8-22.44l-24.62-8.81Z"/>
  <path class="cls-7" d="M103.13,130.31l-22.07-7.9-18.22,50.22-18.22-50.22-22.07,7.9c-5.19,1.86-9.42,5.4-12.2,9.86l5.76,9.63c2.89,4.82,7.82,8.09,13.3,8.93l-.6,3.39c-.78,4.45.06,9.03,2.38,12.9l7.38,12.34h48.55l7.38-12.34c2.32-3.87,3.16-8.45,2.38-12.9l-.6-3.39c5.48-.84,10.42-4.1,13.3-8.93l5.76-9.63c-2.78-4.47-7.01-8-12.2-9.86Z"/>
  <polygon class="cls-8" points="78.51 121.5 47.17 121.5 31.4 127.14 56.09 187.37 69.99 187.37 94.12 127.09 78.51 121.5"/>
  <path class="cls-4" d="M66.39,146.46h-7.27s-6.75,12.86-5.94,40.9c-.21,0,19.36,0,19.15,0,.81-28.04-5.94-40.9-5.94-40.9Z"/>
  <path class="cls-9" d="M58.87,150.73l-5.05-8.75c-1.8-3.11.45-7.01,4.05-7.01h10.1c3.6,0,5.84,3.89,4.05,7.01l-5.05,8.75c-1.8,3.11-6.29,3.11-8.09,0Z"/>
  <ellipse class="cls-6" cx="62.91" cy="125.52" rx="13.59" ry="9.45"/>
  <g>
    <path class="cls-14" d="M38.82,124.46c-17.39,1.21-24.3,10.69-24.3,10.69l6.88,11.5c2.28,3.81,6.4,6.15,10.84,6.15h4.48l-1.84,10.4c-.53,2.99.04,6.07,1.6,8.67l9.27,15.5h15.9l-22.82-62.91Z"/>
    <path class="cls-14" d="M86.87,124.46c17.39,1.21,24.3,10.69,24.3,10.69l-6.87,11.5c-2.28,3.81-6.4,6.15-10.84,6.15h-4.48l1.84,10.4c.53,2.99-.04,6.07-1.6,8.67l-9.27,15.5h-15.9l22.83-62.91Z"/>
  </g>
  <polygon class="cls-1" points="50.51 119.09 62.84 135.01 48.25 150.45 38.82 124.46 50.51 119.09"/>
  <polygon class="cls-1" points="75.17 119.09 62.84 135.01 77.43 150.45 86.86 124.46 75.17 119.09"/>
  <circle class="cls-5" cx="107.84" cy="75.74" r="9.96"/>
  <circle class="cls-5" cx="19.13" cy="75.74" r="9.96"/>
  <path class="cls-6" d="M29.08,75.74c0-5.5-4.46-9.96-9.96-9.96-2.59,0-4.94,1-6.71,2.62-.16,4.67.41,11.34,3.95,16.9.88.25,1.8.4,2.76.4,5.5,0,9.96-4.46,9.96-9.96Z"/>
  <path class="cls-6" d="M97.88,75.74c0-5.5,4.46-9.96,9.96-9.96,2.59,0,4.94,1,6.71,2.62.16,4.67-.41,11.34-3.95,16.9-.88.25-1.8.4-2.76.4-5.5,0-9.96-4.46-9.96-9.96Z"/>
  <rect class="cls-13" x="19.61" y="5.46" width="87.75" height="121.23" rx="43.87" ry="43.87"/>
  <path class="cls-5" d="M32.63,82.82v-33.48c0-21.92,16.29-40.21,37.36-43.38-2.13-.32-4.3-.49-6.51-.49h0c-24.13,0-43.87,19.74-43.87,43.87v33.48c0,24.13,19.74,43.87,43.87,43.87h0c2.21,0,4.39-.17,6.51-.49-21.07-3.17-37.36-21.47-37.36-43.38Z"/>
  <path class="cls-3" d="M35.58,61.48c-.84,0-1.66-.43-2.12-1.21-.69-1.17-.3-2.68.87-3.37,6.12-3.62,13.72-3.62,19.83,0,1.17.69,1.56,2.2.87,3.37-.69,1.17-2.2,1.56-3.37.87-4.57-2.7-10.25-2.7-14.82,0-.39.23-.83.34-1.25.34Z"/>
  <path class="cls-3" d="M74.06,61.48c-.84,0-1.66-.43-2.12-1.21-.69-1.17-.3-2.68.87-3.37,6.12-3.62,13.72-3.62,19.83,0,1.17.69,1.56,2.2.87,3.37-.69,1.17-2.2,1.56-3.37.87-4.57-2.7-10.25-2.7-14.82,0-.39.23-.83.34-1.25.34Z"/>
  <ellipse class="cls-5" cx="63.48" cy="84.26" rx="7.39" ry="9.85"/>
  <path class="cls-6" d="M63.02,84.87c0-4,1.79-7.43,4.35-8.97-1.13-.94-2.46-1.49-3.89-1.49-4.08,0-7.39,4.41-7.39,9.85s3.31,9.85,7.39,9.85c1.08,0,2.11-.32,3.03-.87-2.09-1.74-3.49-4.83-3.49-8.36Z"/>
  <path class="cls-10" d="M107.39,65.81c.15,0,.3-.02.45-.02,3.07,0,5.81,1.39,7.63,3.57.29-9.72-.25-40.38-17.88-47.53l-13.59,14.66s-.66,7.88,2.66,15.4c2.42,5.48,7.36,9.53,13.23,10.72,2.34.47,5.27,1.46,7.49,3.21Z"/>
  <path class="cls-3" d="M105.91,28.17c-2.23-2.76-4.96-4.98-8.32-6.34l-13.59,14.66s-.66,7.88,2.66,15.4c.44.99.99,1.92,1.58,2.82,10.34-8.9,15.52-20.51,17.66-26.53Z"/>
  <path class="cls-12" d="M50.51,4.87C8.59,18.32,9.73,58.69,10.96,70.06c1.8-2.58,4.79-4.28,8.17-4.28.12,0,.23.01.35.02,13.24-7.81,34.78-9.2,40.71-9.44,1.1-.05,2.2-.13,3.29-.33,26.86-4.98,34.12-34.2,34.12-34.2,0,0-18.36-26.18-47.08-16.96Z"/>
  <path class="cls-10" d="M50.51,4.87C8.59,18.32,9.73,58.69,10.96,70.06c1.8-2.58,4.79-4.28,8.17-4.28.12,0,.23.01.35.02,3.87-2.28,8.46-4.01,13.15-5.33h0s-1.48-34.32,18.05-55.65c-.06.02-.11.03-.17.05Z"/>
  <g>
    <ellipse class="cls-14" cx="46.56" cy="73.41" rx="7.58" ry="7.62"/>
    <path class="cls-2" d="M45.68,68.04c-2.01.32-3.69,1.83-4.29,3.79-.29.94-.31,1.84-.13,2.67.11.5.74.61,1.01.17.6-.94,1.76-1.49,3.01-1.16.9.24,1.64.98,1.87,1.89.27,1.04-.05,2-.7,2.65-.31.31-.07.83.36.8.94-.05,1.96-.41,3.08-1.34,1.24-1.03,2.08-2.5,2.08-4.11-.01-3.28-2.93-5.89-6.29-5.35Z"/>
    <ellipse class="cls-14" cx="80.4" cy="73.41" rx="7.58" ry="7.62"/>
    <path class="cls-2" d="M79.52,68.03c-2.01.32-3.69,1.83-4.29,3.79-.29.94-.31,1.84-.13,2.67.11.5.74.61,1.01.17.6-.94,1.76-1.49,3.01-1.16.9.24,1.64.98,1.87,1.89.27,1.04-.05,2-.7,2.65-.31.31-.07.83.36.8.94-.05,1.96-.41,3.08-1.34,1.24-1.03,2.08-2.5,2.08-4.11-.01-3.28-2.93-5.89-6.29-5.35Z"/>
  </g>
</svg>