<?xml version="1.0" encoding="UTF-8"?>
<svg id="Objects" xmlns="http://www.w3.org/2000/svg" viewBox="0 0 127 203.88">
  <defs>
    <style>
      .cls-1 {
        fill: #dcf4ff;
      }

      .cls-1, .cls-2, .cls-3, .cls-4, .cls-5, .cls-6, .cls-7, .cls-8, .cls-9, .cls-10, .cls-11, .cls-12, .cls-13, .cls-14, .cls-15, .cls-16, .cls-17, .cls-18, .cls-19, .cls-20, .cls-21, .cls-22, .cls-23, .cls-24 {
        stroke-width: 0px;
      }

      .cls-2 {
        fill: #307ea0;
      }

      .cls-3 {
        fill: #ffd4b0;
      }

      .cls-4 {
        fill: #f4e49f;
      }

      .cls-5 {
        fill: #8e6447;
      }

      .cls-6 {
        fill: #ffedd9;
      }

      .cls-7 {
        fill: #775239;
      }

      .cls-8 {
        fill: #b6e5ef;
      }

      .cls-9 {
        fill: #ffc599;
      }

      .cls-10 {
        fill: #84d9ef;
      }

      .cls-11 {
        fill: #d6ecf2;
      }

      .cls-12 {
        fill: #ceebf4;
      }

      .cls-13 {
        fill: #4b93bc;
      }

      .cls-14 {
        fill: #bfebf7;
      }

      .cls-15 {
        fill: #e8f5f9;
      }

      .cls-16 {
        fill: #a6e8ff;
      }

      .cls-25 {
        fill: none;
        stroke: #fff;
        stroke-linecap: round;
        stroke-miterlimit: 10;
        stroke-width: 4.92px;
      }

      .cls-17 {
        fill: #c3e2a6;
      }

      .cls-18 {
        fill: #79cce2;
      }

      .cls-19 {
        fill: #aacc87;
      }

      .cls-20 {
        fill: #1f6e89;
      }

      .cls-21 {
        fill: #69cbe2;
      }

      .cls-22 {
        fill: #fff;
      }

      .cls-23 {
        fill: #fff3b8;
      }

      .cls-24 {
        fill: #ffb27d;
      }
    </style>
  </defs>
  <path class="cls-15" d="M79.28,129.43h-31.34l-24.62,8.81c-9.48,3.39-15.8,12.37-15.8,22.44v26.1c0,4.7,3.81,8.52,8.52,8.52h95.15c4.7,0,8.52-3.81,8.52-8.52v-26.1c0-10.07-6.33-19.05-15.8-22.44l-24.62-8.81Z"/>
  <path class="cls-11" d="M103.9,138.24l-22.07-7.9-18.22,50.22-18.22-50.22-22.07,7.9c-5.19,1.86-9.42,5.4-12.2,9.86l5.76,9.63c2.89,4.82,7.82,8.09,13.3,8.93l-.6,3.39c-.78,4.45.06,9.03,2.38,12.9l7.38,12.34h48.55l7.38-12.34c2.32-3.87,3.16-8.45,2.38-12.9l-.6-3.39c5.48-.84,10.42-4.1,13.3-8.93l5.76-9.63c-2.78-4.47-7.01-8-12.2-9.86Z"/>
  <polygon class="cls-17" points="79.28 129.43 47.93 129.43 32.16 135.08 56.86 195.3 70.76 195.3 94.89 135.02 79.28 129.43"/>
  <polygon class="cls-19" points="67.77 142.42 68 129.43 47.93 129.43 32.16 135.08 56.86 195.3 70.76 195.3 79.65 173.08 67.77 142.42"/>
  <path class="cls-22" d="M39.58,132.39c-17.39,1.21-24.3,10.69-24.3,10.69l6.88,11.5c2.28,3.81,6.4,6.15,10.84,6.15h4.48l-1.84,10.4c-.53,2.99.04,6.07,1.6,8.67l9.27,15.5h15.9l-22.82-62.91Z"/>
  <path class="cls-22" d="M87.63,132.39c17.39,1.21,24.3,10.69,24.3,10.69l-6.87,11.5c-2.28,3.81-6.4,6.15-10.84,6.15h-4.48l1.84,10.4c.53,2.99-.04,6.07-1.6,8.67l-9.27,15.5h-15.9l22.82-62.91Z"/>
  <ellipse class="cls-9" cx="63.61" cy="127.66" rx="15.82" ry="15.31"/>
  <path class="cls-24" d="M59.05,128.75c0-7.06,4.94-12.99,11.66-14.76-2.14-1.04-4.54-1.64-7.1-1.64-8.74,0-15.82,6.86-15.82,15.31s7.08,15.31,15.82,15.31c1.44,0,2.84-.2,4.16-.55-5.17-2.52-8.73-7.69-8.73-13.67Z"/>
  <circle class="cls-3" cx="108.6" cy="83.67" r="9.96" transform="translate(-27.36 101.3) rotate(-45)"/>
  <circle class="cls-3" cx="19.9" cy="83.67" r="9.96" transform="translate(-51.43 35.61) rotate(-42.65)"/>
  <path class="cls-9" d="M29.85,83.67c0-5.5-4.46-9.96-9.96-9.96-2.59,0-4.94,1-6.71,2.62-.16,4.67.41,11.34,3.95,16.9.88.25,1.8.4,2.76.4,5.5,0,9.96-4.46,9.96-9.96Z"/>
  <path class="cls-9" d="M98.65,83.67c0-5.5,4.46-9.96,9.96-9.96,2.59,0,4.94,1,6.71,2.62.16,4.67-.41,11.34-3.95,16.9-.88.25-1.8.4-2.76.4-5.5,0-9.96-4.46-9.96-9.96Z"/>
  <rect class="cls-6" x="20.38" y="13.4" width="87.75" height="121.23" rx="43.87" ry="43.87"/>
  <path class="cls-3" d="M33.4,90.75v-33.48c0-21.92,16.29-40.21,37.36-43.38-2.13-.32-4.3-.49-6.51-.49h0c-24.13,0-43.87,19.74-43.87,43.87v33.48c0,24.13,19.74,43.87,43.87,43.87h0c2.21,0,4.39-.17,6.51-.49-21.07-3.17-37.36-21.47-37.36-43.38Z"/>
  <g>
    <circle class="cls-22" cx="45.01" cy="79.88" r="8.62"/>
    <path class="cls-18" d="M44.02,73.8c-2.28.36-4.19,2.07-4.88,4.28-.33,1.07-.35,2.08-.15,3.02.12.57.84.69,1.15.2.68-1.07,2-1.69,3.43-1.31,1.02.27,1.86,1.11,2.13,2.14.31,1.17-.06,2.27-.79,3-.35.35-.08.93.41.9,1.07-.06,2.22-.47,3.5-1.51,1.41-1.16,2.37-2.82,2.36-4.65-.01-3.71-3.33-6.66-7.15-6.06Z"/>
    <circle class="cls-22" cx="83.49" cy="79.87" r="8.62"/>
    <path class="cls-18" d="M82.49,73.8c-2.28.36-4.19,2.07-4.88,4.28-.33,1.07-.35,2.08-.15,3.02.12.57.84.69,1.15.2.68-1.07,2-1.69,3.43-1.31,1.02.27,1.86,1.11,2.13,2.14.31,1.17-.06,2.27-.79,3-.35.35-.08.93.41.9,1.07-.06,2.22-.47,3.5-1.51,1.41-1.16,2.37-2.82,2.36-4.65-.01-3.71-3.33-6.66-7.15-6.06Z"/>
  </g>
  <path class="cls-7" d="M36.35,69.41c-.84,0-1.66-.43-2.12-1.21-.69-1.17-.3-2.68.87-3.37,6.12-3.62,13.72-3.62,19.83,0,1.17.69,1.56,2.2.87,3.37-.69,1.17-2.2,1.56-3.37.87-4.57-2.7-10.25-2.7-14.82,0-.39.23-.83.34-1.25.34Z"/>
  <path class="cls-7" d="M74.82,69.41c-.84,0-1.66-.43-2.12-1.21-.69-1.17-.3-2.68.87-3.37,6.12-3.62,13.72-3.62,19.83,0,1.17.69,1.56,2.2.87,3.37-.69,1.17-2.2,1.56-3.37.87-4.57-2.7-10.25-2.7-14.82,0-.39.23-.83.34-1.25.34Z"/>
  <path class="cls-20" d="M64.25,78.65c-6.21,0-11.08,5.95-11.08,13.54h22.16c0-7.59-4.87-13.54-11.08-13.54Z"/>
  <ellipse class="cls-3" cx="64.25" cy="92.19" rx="7.39" ry="9.85"/>
  <path class="cls-9" d="M63.79,92.81c0-4,1.79-7.43,4.35-8.97-1.13-.94-2.46-1.49-3.89-1.49-4.08,0-7.39,4.41-7.39,9.85s3.31,9.85,7.39,9.85c1.08,0,2.11-.32,3.03-.87-2.09-1.74-3.49-4.83-3.49-8.36Z"/>
  <path class="cls-13" d="M48.96,99.78h-7.18c-4.34,0-7.9-3.56-7.9-7.9h0c0-4.34,3.55-7.9,7.9-7.9h7.18c4.34,0,7.9,3.55,7.9,7.9h0c0,4.34-3.55,7.9-7.9,7.9Z"/>
  <path class="cls-2" d="M43.75,91.88c0-3.89,2.85-7.13,6.56-7.78-.44-.08-.88-.12-1.34-.12h-7.18c-4.34,0-7.9,3.55-7.9,7.9s3.55,7.9,7.9,7.9h7.18c.46,0,.9-.05,1.34-.12-3.71-.64-6.56-3.89-6.56-7.78Z"/>
  <path class="cls-1" d="M41.78,96.09c-2.32,0-4.21-1.89-4.21-4.21s1.89-4.21,4.21-4.21h7.18c2.32,0,4.21,1.89,4.21,4.21s-1.89,4.21-4.21,4.21h-7.18Z"/>
  <path class="cls-14" d="M44.98,87.68h-3.2c-2.32,0-4.21,1.89-4.21,4.21s1.89,4.21,4.21,4.21h3.2c-.77-1.22-1.23-2.66-1.23-4.21s.46-2.99,1.23-4.21Z"/>
  <path class="cls-13" d="M86.72,99.78h-7.18c-4.34,0-7.9-3.56-7.9-7.9h0c0-4.34,3.56-7.9,7.9-7.9h7.18c4.34,0,7.9,3.55,7.9,7.9h0c0,4.34-3.55,7.9-7.9,7.9Z"/>
  <path class="cls-2" d="M81.5,91.88c0-3.89,2.85-7.13,6.56-7.78-.44-.08-.88-.12-1.34-.12h-7.18c-4.34,0-7.9,3.55-7.9,7.9s3.56,7.9,7.9,7.9h7.18c.46,0,.9-.05,1.34-.12-3.71-.64-6.56-3.89-6.56-7.78Z"/>
  <path class="cls-1" d="M79.54,96.09c-2.32,0-4.21-1.89-4.21-4.21s1.89-4.21,4.21-4.21h7.18c2.32,0,4.21,1.89,4.21,4.21s-1.89,4.21-4.21,4.21h-7.18Z"/>
  <path class="cls-14" d="M82.73,87.68h-3.2c-2.32,0-4.21,1.89-4.21,4.21s1.89,4.21,4.21,4.21h3.2c-.77-1.22-1.23-2.66-1.23-4.21s.46-2.99,1.23-4.21Z"/>
  <line class="cls-25" x1="45.01" y1="90.92" x2="43.75" y2="92.19"/>
  <line class="cls-25" x1="86.22" y1="91.56" x2="84.96" y2="92.82"/>
  <path class="cls-5" d="M108.15,73.74c.15,0,.3-.02.45-.02,1.47,0,2.86.33,4.12.9,2.18-7.34,7.62-33.77-19.33-54.24-31.6-24.01-57,3.07-57,3.07,0,0-32.26,6.91-21.6,51.7,1.5-.9,3.24-1.42,5.11-1.42.16,0,.31.02.47.02h0s3.65-23.55,18.33-34.55c1.94-1.45,4.53-1.65,6.73-.64,3.23,1.48,9.25,3.36,18.81,3.36s15.58-1.88,18.81-3.36c2.2-1.01,4.8-.81,6.73.64,14.68,11,18.33,34.52,18.33,34.52l.03.02Z"/>
  <path class="cls-7" d="M36.38,23.45c-4.68,1.04-31.49,10.12-21.6,51.7,1.5-.9,3.24-1.42,5.11-1.42.16,0,.31.02.47.02h0s3.3-21.21,16.19-32.77h0s-3.22-7.04-.18-17.53Z"/>
  <path class="cls-7" d="M85.1,33.03c-10.19,6.68-20.85,8.89-20.85,8.89,9.58,0,15.62-1.89,18.84-3.37,2.19-1.01,4.78-.79,6.71.65,14.67,11,18.33,34.52,18.33,34.52l.03.02c.15,0,.3-.02.45-.02,1.47,0,2.86.33,4.12.9-1.47-27.46-14.04-38.14-20.64-41.88-2.19-1.24-4.88-1.09-6.98.29Z"/>
  <rect class="cls-16" x="26.9" y="154.98" width="12.02" height="22.16"/>
  <rect class="cls-10" x="26.9" y="154.98" width="5.9" height="22.16"/>
  <path class="cls-12" d="M26.9,170.98h12.69c3.87,0,7.01,3.14,7.01,7.01v17.31h-26.71v-17.31c0-3.87,3.14-7.01,7.01-7.01Z"/>
  <path class="cls-8" d="M34.67,170.98h-7.77c-3.87,0-7.01,3.14-7.01,7.01v17.31h7.77v-17.31c0-3.87,3.14-7.01,7.01-7.01Z"/>
  <path class="cls-16" d="M37.33,139.45c0-1.37-1.12-2.49-2.49-2.49h-3.83c-1.37,0-2.49,1.12-2.49,2.49,0,1.05.66,1.95,1.59,2.32v11.67h5.64v-11.67c.93-.36,1.59-1.27,1.59-2.32Z"/>
  <path class="cls-10" d="M31.83,139.45c0-1.37,1.12-2.49,2.49-2.49h-3.19c-1.22,0-2.36.82-2.59,2.02-.23,1.25.48,2.37,1.55,2.79v11.67h3.33v-9.73c0-.93-.27-1.88-.91-2.56-.42-.45-.68-1.04-.68-1.7Z"/>
  <path class="cls-10" d="M38.35,156.93h-10.88c-1.47,0-2.67-1.2-2.67-2.67h0c0-1.47,1.2-2.67,2.67-2.67h10.88c1.47,0,2.67,1.2,2.67,2.67h0c0,1.47-1.2,2.67-2.67,2.67Z"/>
  <path class="cls-21" d="M29.85,154.26c0-1.47,1.2-2.67,2.67-2.67h-5.04c-1.47,0-2.67,1.2-2.67,2.67s1.2,2.67,2.67,2.67h5.04c-1.47,0-2.67-1.2-2.67-2.67Z"/>
  <path class="cls-23" d="M31.21,159.08h3.2c1.01,0,1.84.82,1.84,1.84v10.06h-6.87v-10.06c0-1.01.82-1.84,1.84-1.84Z"/>
  <path class="cls-4" d="M32.8,159.08h-1.6c-1.02,0-1.84.82-1.84,1.84v10.06h3.44v-11.9Z"/>
</svg>